<svg width="44" height="44" viewBox="0 0 44 44" fill="none" xmlns="http://www.w3.org/2000/svg">
<path d="M22 8.66669C21.2172 8.66669 20.5833 9.30055 20.5833 10.0834V28.4167C20.5833 29.1995 21.2172 29.8334 22 29.8334C22.7828 29.8334 23.4167 29.1995 23.4167 28.4167V10.0833C23.4167 9.30052 22.7828 8.66669 22 8.66669Z" fill="url(#paint0_linear)" stroke="#01C728"/>
<path d="M22 35.3334C22.7824 35.3334 23.4167 34.6991 23.4167 33.9167C23.4167 33.1343 22.7824 32.5 22 32.5C21.2176 32.5 20.5833 33.1343 20.5833 33.9167C20.5833 34.6991 21.2176 35.3334 22 35.3334Z" fill="url(#paint1_linear)" stroke="#01C728"/>
<path d="M41.6666 28.7511V28.7309V15.269C41.6666 14.6671 41.4331 14.104 41.0074 13.6774L41.6666 28.7511ZM41.6666 28.7511C41.6614 29.3455 41.4284 29.901 41.0072 30.3228L30.3228 41.0072C29.8962 41.4331 29.3329 41.6667 28.7309 41.6667H15.2691C14.6671 41.6667 14.1038 41.4331 13.6772 41.0072L2.99281 30.3228L41.6666 28.7511ZM2.3333 28.7309C2.3333 29.3328 2.56677 29.8959 2.99252 30.3225L2.3333 28.7309ZM2.3333 28.7309V15.2691M2.3333 28.7309V15.2691M2.3333 15.2691C2.3333 14.6672 2.56677 14.1041 2.99252 13.6775M2.3333 15.2691L2.99252 13.6775M2.99252 13.6775C2.99262 13.6774 2.99272 13.6773 2.99281 13.6772M2.99252 13.6775L2.99281 13.6772M2.99281 13.6772L13.6772 2.99281C13.6773 2.99273 13.6774 2.99264 13.6774 2.99255C14.1041 2.56678 14.6672 2.3333 15.2691 2.3333H28.7309C29.3328 2.3333 29.8959 2.56677 30.3225 2.99252L2.99281 13.6772ZM30.3228 2.99281L41.0071 13.6771L30.3228 2.99281ZM43.0108 11.6741L32.3259 0.98922C31.3665 0.0298416 30.0882 -0.5 28.7309 -0.5H15.2691C13.9118 -0.5 12.6335 0.0298415 11.6741 0.98922L0.98922 11.6741C0.0298415 12.6335 -0.5 13.9118 -0.5 15.2691V28.7309C-0.5 30.0882 0.0298416 31.3665 0.98922 32.3259L11.6741 43.0108C12.6335 43.9702 13.9118 44.5 15.2691 44.5H28.7309C30.0882 44.5 31.3665 43.9702 32.3259 43.0108L43.0108 32.3259C43.9702 31.3665 44.5 30.0882 44.5 28.7309V15.2691C44.5 13.9118 43.9702 12.6335 43.0108 11.6741Z" fill="url(#paint2_linear)" stroke="#01C728"/>
<defs>
<linearGradient id="paint0_linear" x1="22" y1="9.16669" x2="22" y2="29.3334" gradientUnits="userSpaceOnUse">
<stop stop-color="#01C728"/>
</linearGradient>
<linearGradient id="paint1_linear" x1="22" y1="33" x2="22" y2="34.8334" gradientUnits="userSpaceOnUse">
<stop stop-color="#01C728"/>
</linearGradient>
<linearGradient id="paint2_linear" x1="22" y1="0" x2="22" y2="44" gradientUnits="userSpaceOnUse">
<stop stop-color="#01C728"/>
</linearGradient>
</defs>
</svg>
