<svg width="44" height="609" viewBox="0 0 44 609" fill="none" xmlns="http://www.w3.org/2000/svg">
<rect x="1" y="541" width="42" height="67" rx="21" stroke="white" stroke-width="2"/>
<circle cx="22" cy="559" r="6" fill="#06D031"/>
<rect width="2" height="387" transform="matrix(-1 0 0 1 23 0)" fill="url(#paint0_linear)"/>
<path d="M18.0492 418.32L19.2492 417C20.1426 417.933 21.0626 418.4 22.0092 418.4C22.4759 418.4 22.8559 418.307 23.1492 418.12C23.4426 417.92 23.5892 417.647 23.5892 417.3C23.5892 417.033 23.4892 416.82 23.2892 416.66C23.0892 416.487 22.7292 416.293 22.2092 416.08L21.2092 415.66C20.3159 415.287 19.6626 414.887 19.2492 414.46C18.8492 414.02 18.6492 413.467 18.6492 412.8C18.6492 411.933 18.9692 411.247 19.6092 410.74C20.2626 410.22 21.0959 409.96 22.1092 409.96C23.5226 409.96 24.6559 410.467 25.5092 411.48L24.3692 412.78C23.7292 412.113 22.9626 411.78 22.0692 411.78C21.1759 411.78 20.7292 412.093 20.7292 412.72C20.7292 412.96 20.8226 413.167 21.0092 413.34C21.1959 413.5 21.5359 413.68 22.0292 413.88L22.9692 414.26C23.9159 414.66 24.5959 415.087 25.0092 415.54C25.4359 415.98 25.6492 416.54 25.6492 417.22C25.6492 418.167 25.3026 418.907 24.6092 419.44C23.9159 419.96 23.0492 420.22 22.0092 420.22C20.3426 420.22 19.0226 419.587 18.0492 418.32ZM17.3824 435.08C17.3558 433.68 17.8624 432.473 18.9024 431.46C19.9424 430.433 21.1691 429.933 22.5824 429.96C24.4224 429.96 25.8024 430.72 26.7224 432.24L25.2424 433.4C24.5491 432.4 23.6691 431.9 22.6024 431.9C21.7224 431.9 20.9891 432.207 20.4024 432.82C19.8158 433.433 19.5224 434.187 19.5224 435.08C19.5224 435.987 19.8158 436.747 20.4024 437.36C20.9891 437.973 21.7224 438.28 22.6024 438.28C23.6424 438.28 24.5224 437.787 25.2424 436.8L26.7224 437.94C26.2824 438.66 25.7024 439.22 24.9824 439.62C24.2624 440.02 23.4624 440.22 22.5824 440.22C21.1291 440.22 19.8958 439.72 18.8824 438.72C17.8824 437.72 17.3824 436.507 17.3824 435.08ZM25.39 450.18V452.04H24.75C23.8967 452.04 23.2033 452.28 22.67 452.76C22.1367 453.24 21.87 453.907 21.87 454.76V460H19.77V450.18H21.73V451.46C22.4633 450.54 23.4167 450.08 24.59 450.08C24.8567 450.08 25.1233 450.113 25.39 450.18ZM16.8063 475.08C16.7796 473.68 17.2796 472.473 18.3063 471.46C19.3463 470.433 20.5729 469.933 21.9863 469.96C23.4129 469.933 24.6463 470.433 25.6863 471.46C26.7263 472.487 27.2329 473.693 27.2062 475.08C27.2329 476.48 26.7263 477.693 25.6863 478.72C24.6463 479.747 23.4129 480.247 21.9863 480.22C20.5729 480.247 19.3463 479.747 18.3063 478.72C17.2796 477.68 16.7796 476.467 16.8063 475.08ZM25.0463 475.1C25.0463 474.193 24.7529 473.433 24.1663 472.82C23.5796 472.193 22.8596 471.88 22.0063 471.88C21.1396 471.88 20.4129 472.193 19.8263 472.82C19.2396 473.433 18.9463 474.193 18.9463 475.1C18.9463 476.007 19.2329 476.767 19.8063 477.38C20.3929 477.98 21.1196 478.28 21.9863 478.28C22.8529 478.28 23.5796 477.973 24.1663 477.36C24.7529 476.747 25.0463 475.993 25.0463 475.1ZM20.9516 500V485H23.0516V500H20.9516ZM20.9516 520V505H23.0516V520H20.9516Z" fill="white"/>
<defs>
<linearGradient id="paint0_linear" x1="1" y1="0" x2="1" y2="387" gradientUnits="userSpaceOnUse">
<stop offset="0.182292" stop-color="#009632"/>
<stop offset="1" stop-color="#03D22F"/>
</linearGradient>
</defs>
</svg>
